<svg width="80" height="80" viewBox="0 0 80 80" fill="none" xmlns="http://www.w3.org/2000/svg">
  <defs>
    <linearGradient id="ballGradient" x1="0%" y1="0%" x2="100%" y2="100%">
      <stop offset="0%" style="stop-color:#FFB4D5;stop-opacity:1" />
      <stop offset="50%" style="stop-color:#B4E4D5;stop-opacity:1" />
      <stop offset="100%" style="stop-color:#D5B4FF;stop-opacity:1" />
    </linearGradient>
    <radialGradient id="ballHighlight">
      <stop offset="0%" style="stop-color:#FFFFFF;stop-opacity:0.7" />
      <stop offset="100%" style="stop-color:#FFFFFF;stop-opacity:0" />
    </radialGradient>
  </defs>

  <!-- Motion lines -->
  <path d="M 12 35 L 20 35" stroke="#B4E4D5" stroke-width="3" stroke-linecap="round" opacity="0.4"/>
  <path d="M 15 25 L 22 28" stroke="#FFB4D5" stroke-width="3" stroke-linecap="round" opacity="0.4"/>
  <path d="M 10 45 L 18 43" stroke="#D5B4FF" stroke-width="3" stroke-linecap="round" opacity="0.4"/>

  <!-- Ball -->
  <circle cx="45" cy="40" r="22" fill="url(#ballGradient)" stroke="#9AD4C5" stroke-width="2"/>

  <!-- Highlight -->
  <ellipse cx="38" cy="32" rx="8" ry="10" fill="url(#ballHighlight)"/>

  <!-- Star pattern -->
  <path d="M 45 25 L 47 32 L 54 32 L 49 37 L 51 44 L 45 39 L 39 44 L 41 37 L 36 32 L 43 32 Z"
        fill="#FFFFFF" opacity="0.8"/>

  <!-- Small stars around -->
  <path d="M 65 28 L 66 30 L 68 30 L 66.5 31.5 L 67 33 L 65 32 L 63 33 L 63.5 31.5 L 62 30 L 64 30 Z"
        fill="#FFD4A3" opacity="0.7"/>
  <path d="M 68 48 L 69 50 L 71 50 L 69.5 51.5 L 70 53 L 68 52 L 66 53 L 66.5 51.5 L 65 50 L 67 50 Z"
        fill="#FFD4A3" opacity="0.7"/>

  <!-- Sparkle -->
  <circle cx="62" cy="38" r="2" fill="#FFFFFF" opacity="0.8"/>
  <circle cx="58" cy="22" r="1.5" fill="#FFFFFF" opacity="0.6"/>
</svg>