<svg width="80" height="80" viewBox="0 0 80 80" fill="none" xmlns="http://www.w3.org/2000/svg">
  <defs>
    <linearGradient id="bubbleGradient" x1="0%" y1="0%" x2="100%" y2="100%">
      <stop offset="0%" style="stop-color:#FFD4E4;stop-opacity:1" />
      <stop offset="100%" style="stop-color:#FFC4D4;stop-opacity:1" />
    </linearGradient>
    <linearGradient id="heartGradient" x1="0%" y1="0%" x2="0%" y2="100%">
      <stop offset="0%" style="stop-color:#FF9999;stop-opacity:1" />
      <stop offset="100%" style="stop-color:#FF7B7B;stop-opacity:1" />
    </linearGradient>
    <radialGradient id="bubbleHighlight">
      <stop offset="0%" style="stop-color:#FFFFFF;stop-opacity:0.8" />
      <stop offset="100%" style="stop-color:#FFFFFF;stop-opacity:0" />
    </radialGradient>
  </defs>

  <!-- Main speech bubble -->
  <path d="M 25 20 Q 20 20 20 25 L 20 45 Q 20 50 25 50 L 32 50 L 28 58 L 38 50 L 55 50 Q 60 50 60 45 L 60 25 Q 60 20 55 20 Z"
        fill="url(#bubbleGradient)" stroke="#FFB4C4" stroke-width="2.5"/>

  <!-- Bubble highlight -->
  <ellipse cx="32" cy="28" rx="12" ry="8" fill="url(#bubbleHighlight)"/>

  <!-- Heart inside bubble -->
  <path d="M 40 30 C 40 27 37 25 35 25 C 33.5 25 32.5 26 32 27 C 31.5 26 30.5 25 29 25 C 27 25 24 27 24 30 C 24 34 32 40 32 40 C 32 40 40 34 40 30 Z"
        fill="url(#heartGradient)"/>

  <!-- Heart highlight -->
  <ellipse cx="29" cy="28" rx="2" ry="2.5" fill="#FFB4B4" opacity="0.6"/>

  <!-- Sparkle dots around bubble -->
  <circle cx="65" cy="25" r="2.5" fill="#FFB4D4" opacity="0.7"/>
  <circle cx="68" cy="35" r="2" fill="#FFB4D4" opacity="0.6"/>
  <circle cx="66" cy="45" r="2.5" fill="#FFB4D4" opacity="0.7"/>

  <!-- Small decorative dots -->
  <circle cx="15" cy="30" r="1.5" fill="#FFC4D4" opacity="0.5"/>
  <circle cx="12" cy="40" r="2" fill="#FFC4D4" opacity="0.6"/>
  <circle cx="16" cy="48" r="1.5" fill="#FFC4D4" opacity="0.5"/>

  <!-- Ellipsis sparkles -->
  <circle cx="62" cy="18" r="1.5" fill="#FFD4A3" opacity="0.7"/>
  <circle cx="67" cy="16" r="1" fill="#FFD4A3" opacity="0.6"/>
  <circle cx="71" cy="18" r="1.5" fill="#FFD4A3" opacity="0.7"/>
</svg>