<svg width="80" height="80" viewBox="0 0 80 80" fill="none" xmlns="http://www.w3.org/2000/svg">
  <defs>
    <linearGradient id="bagGrad" x1="0%" y1="0%" x2="0%" y2="100%">
      <stop offset="0%" style="stop-color:#F4E4C1;stop-opacity:1" />
      <stop offset="100%" style="stop-color:#D4C4A1;stop-opacity:1" />
    </linearGradient>
    <linearGradient id="coinGrad" x1="0%" y1="0%" x2="100%" y2="100%">
      <stop offset="0%" style="stop-color:#FFD700;stop-opacity:1" />
      <stop offset="100%" style="stop-color:#FFA500;stop-opacity:1" />
    </linearGradient>
  </defs>

  <!-- Money bag -->
  <ellipse cx="40" cy="52" rx="18" ry="20" fill="url(#bagGrad)"/>

  <!-- Bag top tie -->
  <path d="M32 36 C32 36 34 32 40 32 C46 32 48 36 48 36 L48 40 C48 42 46 44 40 44 C34 44 32 42 32 40 Z" fill="#C4B491"/>
  <ellipse cx="40" cy="36" rx="8" ry="3" fill="#D4C4A1"/>

  <!-- Bag rope -->
  <path d="M35 32 Q35 28 38 28" stroke="#8B7355" stroke-width="2" fill="none" stroke-linecap="round"/>
  <path d="M45 32 Q45 28 42 28" stroke="#8B7355" stroke-width="2" fill="none" stroke-linecap="round"/>

  <!-- Star/$ symbol on bag -->
  <path d="M40 52 L41.5 56 L46 56.5 L43 59.5 L43.5 64 L40 62 L36.5 64 L37 59.5 L34 56.5 L38.5 56 Z" fill="#FFD700" opacity="0.6"/>

  <!-- Coin peeking out -->
  <circle cx="52" cy="42" r="10" fill="url(#coinGrad)"/>
  <circle cx="52" cy="42" r="8" fill="#FFE55C"/>
  <circle cx="52" cy="42" r="6" fill="url(#coinGrad)"/>

  <!-- Coin symbol -->
  <text x="52" y="46" font-family="Arial, sans-serif" font-size="10" font-weight="bold" fill="#B8860B" text-anchor="middle">$</text>

  <!-- Sparkles -->
  <path d="M62 32 L63 34 L65 35 L63 36 L62 38 L61 36 L59 35 L61 34 Z" fill="#FFD700" opacity="0.8"/>
  <path d="M28 48 L28.5 49.5 L30 50 L28.5 50.5 L28 52 L27.5 50.5 L26 50 L27.5 49.5 Z" fill="#FFD700" opacity="0.6"/>
  <path d="M58 56 L58.5 57.5 L60 58 L58.5 58.5 L58 60 L57.5 58.5 L56 58 L57.5 57.5 Z" fill="#FFE55C" opacity="0.7"/>
</svg>
