<svg width="80" height="80" viewBox="0 0 80 80" fill="none" xmlns="http://www.w3.org/2000/svg">
  <!-- Notepad -->
  <rect x="25" y="20" width="30" height="40" rx="3" fill="#FFF9E6"/>
  <rect x="26" y="21" width="28" height="38" rx="2" fill="#FFFDF5"/>

  <!-- Spiral binding -->
  <circle cx="30" cy="22" r="1.5" fill="#B8C5D6"/>
  <circle cx="36" cy="22" r="1.5" fill="#B8C5D6"/>
  <circle cx="42" cy="22" r="1.5" fill="#B8C5D6"/>
  <circle cx="48" cy="22" r="1.5" fill="#B8C5D6"/>

  <!-- Lines on notepad -->
  <line x1="30" y1="30" x2="48" y2="30" stroke="#E0E0E0" stroke-width="1"/>
  <line x1="30" y1="35" x2="48" y2="35" stroke="#E0E0E0" stroke-width="1"/>
  <line x1="30" y1="40" x2="45" y2="40" stroke="#E0E0E0" stroke-width="1"/>
  <line x1="30" y1="45" x2="48" y2="45" stroke="#E0E0E0" stroke-width="1"/>
  <line x1="30" y1="50" x2="42" y2="50" stroke="#E0E0E0" stroke-width="1"/>

  <!-- Star sticker -->
  <path d="M48 52 L49.5 55.5 L53 56 L50.5 58.5 L51 62 L48 60 L45 62 L45.5 58.5 L43 56 L46.5 55.5 Z" fill="#FFD93D" stroke="#FFB800" stroke-width="0.5"/>

  <!-- Pen -->
  <rect x="52" y="35" width="4" height="28" rx="2" fill="#A4C8E1" transform="rotate(15 54 49)"/>
  <ellipse cx="54" cy="35" rx="2" ry="1.5" fill="#7BA7C7" transform="rotate(15 54 35)"/>

  <!-- Pen tip -->
  <path d="M58 58 L60 62 L56 62 Z" fill="#4A4A4A" transform="rotate(15 58 60)"/>

  <!-- Pen clip -->
  <rect x="54.5" y="40" width="1" height="5" rx="0.5" fill="#E8F4F8" transform="rotate(15 55 42.5)"/>
</svg>
