<svg width="160" height="160" viewBox="0 0 160 160" fill="none" xmlns="http://www.w3.org/2000/svg">
  <defs>
    <!-- Body gradient -->
    <linearGradient id="body-a" x1="0.3" y1="0" x2="0.7" y2="1">
      <stop offset="0%" stop-color="#e0b4fe"/>
      <stop offset="100%" stop-color="#a855f7"/>
    </linearGradient>

    <!-- Body shine -->
    <radialGradient id="shine-a" cx="0.35" cy="0.3" r="0.5">
      <stop offset="0%" stop-color="#fce7f3" stop-opacity="0.5"/>
      <stop offset="100%" stop-color="#e0b4fe" stop-opacity="0"/>
    </radialGradient>

    <!-- NEW: Subtle red-ish anger overlay -->
    <radialGradient id="anger-flush-a" cx="0.5" cy="0.5" r="0.6">
      <stop offset="0%" stop-color="#ff453a" stop-opacity="0.06"/>
      <stop offset="70%" stop-color="#ff453a" stop-opacity="0.02"/>
      <stop offset="100%" stop-color="#ff453a" stop-opacity="0"/>
    </radialGradient>

    <!-- NEW: Rim light (warm reddish edge) -->
    <radialGradient id="rim-light-a" cx="0.5" cy="0.5" r="0.5">
      <stop offset="0%" stop-color="#a855f7" stop-opacity="0"/>
      <stop offset="75%" stop-color="#ff6b9d" stop-opacity="0"/>
      <stop offset="100%" stop-color="#ff6b9d" stop-opacity="0.15"/>
    </radialGradient>

    <!-- NEW: Eye iris detail (reddish anger tint) -->
    <radialGradient id="iris-a" cx="0.35" cy="0.35" r="0.5">
      <stop offset="0%" stop-color="#3d1b2e"/>
      <stop offset="100%" stop-color="#1c1c1e"/>
    </radialGradient>

    <!-- NEW: Anger mark glow -->
    <filter id="anger-glow-a">
      <feGaussianBlur stdDeviation="1.5"/>
      <feComponentTransfer>
        <feFuncA type="linear" slope="0.8"/>
      </feComponentTransfer>
      <feMerge>
        <feMergeNode/>
        <feMergeNode in="SourceGraphic"/>
      </feMerge>
    </filter>

    <!-- Enhanced shadow with red tint -->
    <filter id="sh-a">
      <feGaussianBlur in="SourceAlpha" stdDeviation="3"/>
      <feOffset dy="3"/>
      <feComponentTransfer>
        <feFuncA type="linear" slope="0.2"/>
      </feComponentTransfer>
      <feColorMatrix type="matrix" values="1 0 0 0 0.05
                                            0 1 0 0 0
                                            0 0 1 0 0
                                            0 0 0 1 0"/>
      <feMerge>
        <feMergeNode/>
        <feMergeNode in="SourceGraphic"/>
      </feMerge>
    </filter>
  </defs>

  <!-- Ambient shadow (with slight red tint) -->
  <ellipse cx="80" cy="146" rx="32" ry="7" fill="#a855f7" opacity="0.2"/>
  <ellipse cx="80" cy="146" rx="32" ry="7" fill="#ff453a" opacity="0.04"/>

  <!-- Body -->
  <ellipse cx="80" cy="88" rx="46" ry="50" fill="url(#body-a)" filter="url(#sh-a)"/>
  <ellipse cx="80" cy="88" rx="46" ry="50" fill="url(#shine-a)"/>
  <ellipse cx="80" cy="88" rx="46" ry="50" fill="url(#rim-light-a)"/>
  <ellipse cx="80" cy="88" rx="46" ry="50" fill="url(#anger-flush-a)"/>

  <!-- Ears (perked up, alert) -->
  <ellipse cx="48" cy="38" rx="11" ry="17" fill="#a855f7" filter="url(#sh-a)"/>
  <ellipse cx="112" cy="38" rx="11" ry="17" fill="#a855f7" filter="url(#sh-a)"/>
  <ellipse cx="48" cy="39" rx="6" ry="9" fill="#f0abfc" opacity="0.4"/>
  <ellipse cx="112" cy="39" rx="6" ry="9" fill="#f0abfc" opacity="0.4"/>

  <!-- NEW: Steam/puff marks near ears -->
  <g opacity="0.5">
    <!-- Left steam -->
    <ellipse cx="30" cy="28" rx="4" ry="3" fill="#ffffff" opacity="0.6"/>
    <ellipse cx="27" cy="24" rx="3" ry="2.5" fill="#ffffff" opacity="0.5"/>
    <ellipse cx="32" cy="25" rx="2.5" ry="2" fill="#ffffff" opacity="0.4"/>

    <!-- Right steam -->
    <ellipse cx="130" cy="28" rx="4" ry="3" fill="#ffffff" opacity="0.6"/>
    <ellipse cx="133" cy="24" rx="3" ry="2.5" fill="#ffffff" opacity="0.5"/>
    <ellipse cx="128" cy="25" rx="2.5" ry="2" fill="#ffffff" opacity="0.4"/>
  </g>

  <!-- Arms (fists clenched) -->
  <ellipse cx="36" cy="92" rx="10" ry="12" fill="#a855f7" filter="url(#sh-a)"/>
  <ellipse cx="124" cy="92" rx="10" ry="12" fill="#a855f7" filter="url(#sh-a)"/>

  <!-- Feet -->
  <ellipse cx="64" cy="132" rx="12" ry="8" fill="#a855f7" filter="url(#sh-a)"/>
  <ellipse cx="96" cy="132" rx="12" ry="8" fill="#a855f7" filter="url(#sh-a)"/>

  <!-- Angry eyes with iris detail -->
  <ellipse cx="64" cy="80" rx="9" ry="9" fill="url(#iris-a)"/>
  <ellipse cx="96" cy="80" rx="9" ry="9" fill="url(#iris-a)"/>
  <circle cx="66" cy="78" r="3" fill="#fff"/>
  <circle cx="98" cy="78" r="3" fill="#fff"/>

  <!-- Enhanced angry eyebrows (thicker, more dramatic V shape) -->
  <line x1="54" y1="66" x2="70" y2="70" stroke="#1c1c1e" stroke-width="4" stroke-linecap="round"/>
  <line x1="90" y1="70" x2="106" y2="66" stroke="#1c1c1e" stroke-width="4" stroke-linecap="round"/>

  <!-- Red cheeks -->
  <ellipse cx="52" cy="88" rx="9" ry="6" fill="#fb7185" opacity="0.5"/>
  <ellipse cx="108" cy="88" rx="9" ry="6" fill="#fb7185" opacity="0.5"/>

  <!-- Nose with specular highlight -->
  <ellipse cx="80" cy="90" rx="3.5" ry="2.5" fill="#f9a8d4"/>
  <circle cx="81" cy="89" r="0.8" fill="#ffffff" opacity="0.8"/>

  <!-- Pout mouth -->
  <path d="M68 100 Q74 97 80 98 Q86 97 92 100" stroke="#1c1c1e" stroke-width="2.5" fill="none" stroke-linecap="round"/>

  <!-- Enhanced anger mark (💢 style with glow) -->
  <g transform="translate(118 32)" filter="url(#anger-glow-a)">
    <!-- Background glow -->
    <circle cx="3" cy="3" r="5" fill="#fb7185" opacity="0.2"/>

    <!-- Cross mark -->
    <line x1="0" y1="3" x2="6" y2="3" stroke="#fb7185" stroke-width="3" stroke-linecap="round"/>
    <line x1="3" y1="0" x2="3" y2="6" stroke="#fb7185" stroke-width="3" stroke-linecap="round"/>

    <!-- Diagonal accents for 💢 style -->
    <line x1="1" y1="1" x2="2.5" y2="2.5" stroke="#fb7185" stroke-width="2" stroke-linecap="round" opacity="0.6"/>
    <line x1="5" y1="1" x2="3.5" y2="2.5" stroke="#fb7185" stroke-width="2" stroke-linecap="round" opacity="0.6"/>
    <line x1="1" y1="5" x2="2.5" y2="3.5" stroke="#fb7185" stroke-width="2" stroke-linecap="round" opacity="0.6"/>
    <line x1="5" y1="5" x2="3.5" y2="3.5" stroke="#fb7185" stroke-width="2" stroke-linecap="round" opacity="0.6"/>
  </g>
</svg>
